<svg xmlns="http://www.w3.org/2000/svg" width="210mm" height="297mm" viewBox="0 0 210 297" role="img" aria-labelledby="t"><title id="t">JUSTEKS quotation cover - A4</title>

  <rect width="210" height="297" fill="#0A0A0A"/>
  <g transform="translate(24 34) scale(0.17910399999999999) translate(0 13)"><g fill="none" stroke="#FAF8F4" stroke-width="10" stroke-linecap="butt" stroke-linejoin="miter"><path d="M30 15 H42 V39 A10 10 0 0 1 22 39" transform="translate(-25.5 -28) scale(1.5)"/></g><rect x="61" y="0" width="1.5" height="40" fill="#C8A96A"/><g fill="none" stroke="#FAF8F4" stroke-width="8" stroke-linecap="butt" stroke-linejoin="miter" transform="translate(82.5 0)"><path d="M6 0 H22 V30 A10 10 0 0 1 2 30" transform="translate(-2 0)"/><path d="M0 0 V28 A12 12 0 0 0 24 28 V0" transform="translate(33 0)"/><path d="M20 9.5 C20 4 16 -0.5 11 -0.5 C6 -0.5 2 4 2 9 C2 14 6 17 11 19 C16 21 20 25 20 30 C20 36 16 40.5 11 40.5 C6 40.5 2 36 2 30" transform="translate(67 0)"/><path d="M0 0 H24 M12 0 V40" transform="translate(96 0)"/><path d="M21 0 H0 V40 H21 M0 20 H16" transform="translate(129 0)"/><path d="M0 0 V40 M20 0 L1 21 M7 15 L22 40" transform="translate(162 0)"/><path d="M20 9.5 C20 4 16 -0.5 11 -0.5 C6 -0.5 2 4 2 9 C2 14 6 17 11 19 C16 21 20 25 20 30 C20 36 16 40.5 11 40.5 C6 40.5 2 36 2 30" transform="translate(193 0)"/></g></g>
  <rect x="24" y="150" width="30" height="0.3" fill="#C8A96A"/>
  <text x="24" y="166" font-family="'Newsreader', Georgia, serif" font-size="11" fill="#FAF8F4">QUOTATION</text>
  <text x="24" y="178" font-family="'Instrument Sans', Helvetica, Arial, sans-serif" font-size="4.4" fill="#A79E92">[CLIENT NAME]</text>

  <text x="24" y="246" font-family="'Instrument Sans', Helvetica, Arial, sans-serif" font-size="2.2" fill="#A79E92" letter-spacing="0.5">REFERENCE</text>
  <text x="24" y="252" font-family="'IBM Plex Mono', 'Courier New', monospace" font-size="3.2" fill="#FAF8F4">[QUOTE REF]</text>
  <text x="80" y="246" font-family="'Instrument Sans', Helvetica, Arial, sans-serif" font-size="2.2" fill="#A79E92" letter-spacing="0.5">DATE</text>
  <text x="80" y="252" font-family="'IBM Plex Mono', 'Courier New', monospace" font-size="3.2" fill="#FAF8F4">[DATE]</text>
  <text x="136" y="246" font-family="'Instrument Sans', Helvetica, Arial, sans-serif" font-size="2.2" fill="#A79E92" letter-spacing="0.5">VALID UNTIL</text>
  <text x="136" y="252" font-family="'IBM Plex Mono', 'Courier New', monospace" font-size="3.2" fill="#FAF8F4">[DATE]</text>

  <text x="24" y="276" font-family="'Instrument Sans', Helvetica, Arial, sans-serif" font-size="2.2" fill="#6B6257">[LEGAL NAME] &#183; [REGISTERED ADDRESS] &#183; [PHONE]</text>
</svg>
